<svg width="33" height="24" viewBox="0 0 33 24" fill="none" xmlns="http://www.w3.org/2000/svg">
<path d="M21.4225 11.9999C21.4225 13.9799 19.2225 15.5799 16.5 15.5799C13.7775 15.5799 11.5775 13.9799 11.5775 11.9999C11.5775 10.0199 13.7775 8.41992 16.5 8.41992C19.2225 8.41992 21.4225 10.0199 21.4225 11.9999Z" stroke="white" stroke-width="1.5" stroke-linecap="round" stroke-linejoin="round"/>
<path d="M16.5 20.2702C21.3537 20.2702 25.8775 18.1902 29.0262 14.5902C30.2637 13.1802 30.2637 10.8102 29.0262 9.40021C25.8775 5.80021 21.3537 3.72021 16.5 3.72021C11.6462 3.72021 7.1225 5.80021 3.97375 9.40021C2.73625 10.8102 2.73625 13.1802 3.97375 14.5902C7.1225 18.1902 11.6462 20.2702 16.5 20.2702Z" stroke="white" stroke-width="1.5" stroke-linecap="round" stroke-linejoin="round"/>
</svg>
