<svg width="120" height="60" viewBox="0 0 120 60" fill="none" xmlns="http://www.w3.org/2000/svg">
<g clip-path="url(#clip0_129_1081)">
<path fill-rule="evenodd" clip-rule="evenodd" d="M14.4963 17.7133C11.8003 17.4544 9.08251 17.9632 6.71652 19.1697C4.35054 20.3762 2.45253 22.2212 1.28328 24.4511C0.114032 26.6812 -0.268991 29.1865 0.186846 31.6231C0.642684 34.0596 1.915 36.3076 3.82889 38.0581C5.74283 39.8085 8.20448 40.9755 10.8753 41.3986C13.5462 41.8218 16.2952 41.4804 18.7446 40.4212C21.1939 39.3618 23.2235 37.6372 24.5541 35.4837C25.8846 33.3302 26.4511 30.8536 26.1753 28.3949C25.872 25.6617 24.545 23.1073 22.4177 21.1617C20.2905 19.2161 17.493 17.9983 14.4963 17.7133ZM14.0711 35.9427C12.6211 36.1201 11.1466 35.8786 9.85487 35.2525C8.5631 34.6264 7.51905 33.6468 6.86932 32.4518C6.2196 31.2567 5.997 29.9058 6.23272 28.5895C6.46845 27.2731 7.15066 26.057 8.18357 25.1123C9.21639 24.1677 10.548 23.5418 11.991 23.3228C13.4342 23.1038 14.9163 23.3025 16.2291 23.8912C17.5419 24.4797 18.6194 25.4286 19.3102 26.6044C20.0011 27.7802 20.2703 29.1239 20.0805 30.4464C19.8811 31.8376 19.1842 33.1299 18.0979 34.1236C17.0115 35.1172 15.5962 35.7565 14.0711 35.9427ZM33.1937 18.1866C32.7385 18.1876 32.2895 18.2812 31.8788 18.4603C31.4685 18.6394 31.1069 18.8999 30.8206 19.2225C30.5344 19.5451 30.3306 19.9218 30.2243 20.3252C30.1179 20.7286 30.1113 21.1486 30.2054 21.5545C30.4934 22.8699 31.8406 23.7687 33.3087 23.7687H41.827L28.5705 39.7638C28.4723 39.8819 28.4123 40.0227 28.397 40.1701C28.3817 40.3176 28.4119 40.466 28.4839 40.5987C28.5559 40.7314 28.6672 40.8433 28.805 40.9216C28.9428 41 29.1019 41.0418 29.2641 41.0424H50.0584C51.5253 41.0424 52.8737 40.1439 53.1616 38.8284C53.2556 38.4225 53.2492 38.0025 53.1428 37.5991C53.0365 37.1956 52.8329 36.8191 52.5468 36.4963C52.2608 36.1737 51.8994 35.9132 51.4889 35.7339C51.0786 35.5546 50.6296 35.4611 50.1745 35.4599H39.7957L53.0419 19.4771C53.1408 19.3578 53.2014 19.2158 53.2169 19.067C53.2324 18.9181 53.202 18.7682 53.1292 18.6341C53.0565 18.5002 52.944 18.3872 52.8048 18.3082C52.6657 18.2291 52.5048 18.1871 52.3409 18.1866H33.1937ZM116.285 18.251C115.597 18.4003 114.985 18.7592 114.551 19.2687C114.116 19.778 113.886 20.4073 113.897 21.0525V30.3465L97.38 18.3622C97.2507 18.2685 97.0943 18.2099 96.9304 18.1933C96.7655 18.1769 96.5996 18.203 96.4506 18.2686C96.3018 18.3345 96.1761 18.4372 96.089 18.5651C96.001 18.6929 95.9551 18.8408 95.9551 18.9916V38.1816C95.9439 38.8266 96.1752 39.4559 96.6091 39.9653C97.0438 40.4748 97.6554 40.8338 98.3441 40.9829C98.791 41.0727 99.2547 41.0697 99.6997 40.9742C100.146 40.8789 100.562 40.6935 100.919 40.4318C101.276 40.1701 101.562 39.8386 101.76 39.4622C101.958 39.0856 102.06 38.6734 102.059 38.2561V28.8818L118.576 40.8662C118.706 40.9599 118.862 41.0184 119.026 41.0349C119.191 41.0513 119.356 41.0252 119.505 40.9596C119.654 40.8938 119.779 40.7911 119.867 40.6633C119.954 40.5355 120.001 40.3876 120 40.2369V20.9769C120.001 20.5598 119.899 20.1477 119.701 19.7713C119.503 19.3949 119.216 19.0636 118.86 18.8019C118.503 18.5404 118.087 18.3551 117.641 18.2596C117.196 18.1644 116.732 18.1614 116.285 18.251ZM73.2795 23.2344C80.2657 23.2344 85.4859 26.6005 85.4859 29.6116C85.4859 32.6228 80.2657 35.9889 73.2795 35.9889C66.2932 35.9889 61.073 32.6228 61.073 29.6116C61.073 26.6005 66.2932 23.2344 73.2795 23.2344ZM73.2795 17.6526C63.1672 17.6526 54.9697 23.0069 54.9697 29.6116C54.9697 36.2164 63.1672 41.5709 73.2795 41.5709C83.3919 41.5709 91.5892 36.2164 91.5892 29.6116C91.5892 23.0069 83.3915 17.6526 73.2795 17.6526Z" fill="white"/>
</g>
<defs>
<clipPath id="clip0_129_1081">
<rect width="120" height="60" fill="white"/>
</clipPath>
</defs>
</svg>
