<svg width="120" height="60" viewBox="0 0 120 60" fill="none" xmlns="http://www.w3.org/2000/svg">
<g clip-path="url(#clip0_129_1077)">
<path d="M114.722 41.7102C117.082 41.7102 118.755 41.3216 120.001 40.4846V36.688C118.722 37.4952 117.181 38.0034 115.017 38.0034C111.378 38.0034 109.87 35.4324 109.87 31.3669C109.87 27.092 111.706 24.9098 115.05 24.9098C117.017 24.9098 118.951 25.5375 119.968 26.1354V22.1895C118.886 21.6513 117.017 21.2627 114.46 21.2627C107.935 21.2627 104.558 25.5375 104.558 31.5163C104.591 38.063 107.902 41.7102 114.722 41.7102ZM82.8204 39.9763V36.1798C81.2466 37.1662 78.558 38.0332 76.099 38.0332C72.3614 38.0332 70.9514 36.4189 70.722 33.1307H83.0499V30.6793C83.0499 23.8337 79.7383 21.2627 74.6565 21.2627C68.4269 21.2627 65.4761 25.5973 65.4761 31.5462C65.4761 38.392 69.181 41.7102 75.6728 41.7102C78.9186 41.7102 81.312 40.903 82.8204 39.9763ZM36.0335 21.6215V29.3939H29.2138V21.6215H24.0991V41.3216H29.2138V33.1007H36.0335V41.3216H41.1482V21.6215H36.0335ZM64.1973 37.6146H61.9351V21.6215H47.0499V23.2955C47.0499 28.1085 46.722 34.3265 44.9187 37.6146H43.2794V45.8057H48.0006V41.3216H59.4434V45.8057H64.1646V37.6146H64.1973ZM99.1154 41.3216H104.919L96.722 30.7092L103.935 21.6215H98.7875L91.5744 30.7092V21.6215H86.4597V41.3216H91.5744V31.636L99.1154 41.3216ZM74.5253 24.9098C77.0499 24.9098 77.8367 26.8229 77.8367 29.3043V29.6929H70.722C70.8531 26.554 72.0989 24.9098 74.5253 24.9098ZM56.8204 37.6146H49.6073C51.0171 34.6552 51.4105 29.2743 51.4105 25.8665V25.2686H56.8204V37.6146Z" fill="white"/>
<path d="M19.836 41.3207H14.623V17.7941H12.2952C8.03284 17.7941 5.80335 19.7372 5.80335 22.637C5.80335 25.9252 7.34419 27.4499 10.5246 29.393L13.1475 31.0072L5.60652 41.3207H0L6.78697 32.1133C2.88523 29.5723 0.688529 27.0911 0.688529 22.906C0.688529 17.6745 4.68852 14.1172 12.2623 14.1172H19.8033L19.836 41.3207Z" fill="#FC3F1D"/>
</g>
<defs>
<clipPath id="clip0_129_1077">
<rect width="120" height="60" fill="white"/>
</clipPath>
</defs>
</svg>
